<?xml version="1.0" encoding="UTF-8"?><svg id="Layer_1" xmlns="http://www.w3.org/2000/svg" viewBox="0 0 1000 1000"><polygon points="191.28 6.65 191.28 886.23 104.49 973.02 85.37 973.02 85.37 6.65 191.28 6.65" fill="#f58115"/><polygon points="754.45 6.7 85.36 675.78 85.36 528.04 87.77 525.31 606.38 6.7 754.45 6.7" fill="#fff"/><polygon points="332.57 577.51 416.28 661.23 84.16 993.35 85.37 824.7 332.57 577.51" fill="#f58115"/><polygon points="903.31 6.65 903.31 174.2 567.13 510.38 500 577.51 416.28 493.79 482.86 427.1 903.31 6.65" fill="#f58115"/><polygon points="915.84 859.09 915.84 993.35 500 577.51 416.28 493.79 482.86 427.1 567.13 510.38 915.84 859.09" fill="#fff"/><polygon points="609.64 854.59 609.64 993.35 346.96 730.55 263.24 646.83 332.57 577.51 609.64 854.59" fill="#fff"/></svg>