<?xml version="1.0" encoding="UTF-8"?><svg id="Layer_1" xmlns="http://www.w3.org/2000/svg" viewBox="0 0 1883.31 584.57"><path d="m81.06,171.21l91.88,99.48h-55.71l-73.79-85.73v85.73H2.2V3.01h41.24v155.54l72.35-87.18h57.15l-91.88,99.84Z" fill="#231f20"/><path d="m346.39,77.88c11.94,6.51,21.34,16.16,28.21,28.94,6.87,12.78,10.31,28.21,10.31,46.3v117.56h-40.88v-111.41c0-17.84-4.47-31.53-13.38-41.06-8.92-9.52-21.1-14.29-36.53-14.29s-27.67,4.76-36.72,14.29c-9.04,9.53-13.56,23.21-13.56,41.06v111.41h-41.24V3.01h41.24v91.52c6.99-8.44,15.85-14.95,26.59-19.53,10.73-4.58,22.48-6.87,35.27-6.87,15.19,0,28.76,3.26,40.69,9.77Z" fill="#231f20"/><path d="m436.09,116.95c8.32-15.43,19.65-27.43,34-35.99,14.35-8.56,30.2-12.84,47.57-12.84,15.67,0,29.36,3.07,41.06,9.22,11.69,6.15,21.04,13.81,28.03,22.97v-28.94h41.6v199.31h-41.6v-29.66c-7,9.41-16.52,17.24-28.58,23.51-12.06,6.27-25.81,9.41-41.24,9.41-17.13,0-32.8-4.4-47.03-13.2-14.23-8.8-25.5-21.1-33.82-36.9-8.32-15.79-12.48-33.7-12.48-53.72s4.16-37.74,12.48-53.17Zm142.16,18.09c-5.67-10.13-13.08-17.84-22.25-23.15-9.17-5.3-19.05-7.96-29.66-7.96s-20.5,2.59-29.66,7.78c-9.17,5.19-16.58,12.79-22.25,22.79-5.67,10.01-8.5,21.88-8.5,35.63s2.83,25.81,8.5,36.17c5.66,10.37,13.14,18.27,22.43,23.69,9.28,5.43,19.11,8.14,29.48,8.14s20.49-2.65,29.66-7.96c9.16-5.3,16.58-13.08,22.25-23.33,5.66-10.25,8.5-22.25,8.5-35.99s-2.84-25.68-8.5-35.81Z" fill="#231f20"/><path d="m825.31,77.88c12.42,6.51,22.12,16.16,29.12,28.94,6.99,12.78,10.49,28.21,10.49,46.3v117.56h-40.88v-111.41c0-17.84-4.47-31.53-13.38-41.06-8.92-9.52-21.1-14.29-36.53-14.29s-27.67,4.76-36.72,14.29c-9.04,9.53-13.56,23.21-13.56,41.06v111.41h-41.24V71.37h41.24v22.79c6.75-8.2,15.37-14.59,25.86-19.17,10.49-4.58,21.64-6.87,33.46-6.87,15.67,0,29.72,3.26,42.14,9.77Z" fill="#231f20"/><path d="m916.1,116.95c8.32-15.43,19.65-27.43,34-35.99,14.35-8.56,30.2-12.84,47.57-12.84,15.67,0,29.36,3.07,41.06,9.22,11.69,6.15,21.04,13.81,28.03,22.97v-28.94h41.6v199.31h-41.6v-29.66c-7,9.41-16.52,17.24-28.58,23.51-12.06,6.27-25.81,9.41-41.24,9.41-17.13,0-32.8-4.4-47.03-13.2-14.23-8.8-25.5-21.1-33.82-36.9-8.32-15.79-12.48-33.7-12.48-53.72s4.16-37.74,12.48-53.17Zm142.16,18.09c-5.67-10.13-13.08-17.84-22.25-23.15-9.17-5.3-19.05-7.96-29.66-7.96s-20.5,2.59-29.66,7.78c-9.17,5.19-16.58,12.79-22.25,22.79-5.67,10.01-8.5,21.88-8.5,35.63s2.83,25.81,8.5,36.17c5.66,10.37,13.14,18.27,22.43,23.69,9.28,5.43,19.11,8.14,29.48,8.14s20.49-2.65,29.66-7.96c9.16-5.3,16.58-13.08,22.25-23.33,5.66-10.25,8.5-22.25,8.5-35.99s-2.84-25.68-8.5-35.81Z" fill="#231f20"/><path d="m422.53,479.64l91.88,99.48h-55.71l-73.79-85.73v85.73h-41.24l.36-308.43h40.88v196.29l72.35-87.18h57.15l-91.88,99.84Z" fill="#231f20"/><path d="m696.35,386.31c11.94,6.51,21.34,16.16,28.21,28.94,6.87,12.78,10.31,28.21,10.31,46.3v117.56h-40.88v-111.41c0-17.84-4.47-31.53-13.38-41.06-8.92-9.52-21.1-14.29-36.53-14.29s-27.67,4.76-36.72,14.29c-9.04,9.53-13.56,23.21-13.56,41.06v111.41h-41.24v-267.68h41.24v91.52c6.99-8.44,15.85-14.95,26.59-19.53,10.73-4.58,22.48-6.87,35.27-6.87,15.19,0,28.76,3.26,40.69,9.77Z" fill="#231f20"/><path d="m786.06,425.38c8.32-15.43,19.65-27.43,34-35.99,14.35-8.56,30.2-12.84,47.57-12.84,15.67,0,29.36,3.07,41.06,9.22,11.69,6.15,21.04,13.81,28.03,22.97v-28.94h41.6v199.31h-41.6v-29.66c-7,9.41-16.52,17.24-28.58,23.51-12.06,6.27-25.81,9.41-41.24,9.41-17.13,0-32.8-4.4-47.03-13.2-14.23-8.8-25.5-21.1-33.82-36.9-8.32-15.79-12.48-33.7-12.48-53.72s4.16-37.74,12.48-53.17Zm142.16,18.09c-5.67-10.13-13.08-17.84-22.25-23.15-9.17-5.3-19.05-7.96-29.66-7.96s-20.5,2.59-29.66,7.78c-9.17,5.19-16.58,12.79-22.25,22.79-5.67,10.01-8.5,21.88-8.5,35.63s2.83,25.81,8.5,36.17c5.66,10.37,13.14,18.27,22.43,23.69,9.28,5.43,19.11,8.14,29.48,8.14s20.49-2.65,29.66-7.96c9.16-5.3,16.58-13.08,22.25-23.33,5.66-10.25,8.5-22.25,8.5-35.99s-2.84-25.68-8.5-35.81Z" fill="#231f20"/><path d="m1080.68,413.44v110.33c0,7.48,1.75,12.84,5.25,16.1,3.49,3.26,9.46,4.88,17.91,4.88h25.32v34.36h-32.56c-18.57,0-32.8-4.34-42.68-13.02-9.89-8.68-14.83-22.79-14.83-42.32v-110.33h-23.51v-33.64h23.51v-49.56h41.6v49.56h48.47v33.64h-48.47Z" fill="#231f20"/><path d="m1165.87,425.38c8.32-15.43,19.65-27.43,34-35.99,14.35-8.56,30.2-12.84,47.57-12.84,15.67,0,29.36,3.07,41.06,9.22,11.69,6.15,21.04,13.81,28.03,22.97v-28.94h41.6v199.31h-41.6v-29.66c-7,9.41-16.52,17.24-28.58,23.51-12.06,6.27-25.81,9.41-41.24,9.41-17.13,0-32.8-4.4-47.03-13.2-14.23-8.8-25.5-21.1-33.82-36.9-8.32-15.79-12.48-33.7-12.48-53.72s4.16-37.74,12.48-53.17Zm142.16,18.09c-5.67-10.13-13.08-17.84-22.25-23.15-9.17-5.3-19.05-7.96-29.66-7.96s-20.5,2.59-29.66,7.78c-9.17,5.19-16.58,12.79-22.25,22.79-5.67,10.01-8.5,21.88-8.5,35.63s2.83,25.81,8.5,36.17c5.66,10.37,13.14,18.27,22.43,23.69,9.28,5.43,19.11,8.14,29.48,8.14s20.49-2.65,29.66-7.96c9.16-5.3,16.58-13.08,22.25-23.33,5.66-10.25,8.5-22.25,8.5-35.99s-2.84-25.68-8.5-35.81Z" fill="#231f20"/><path d="m1410.22,574.05c-5.06-5.06-7.6-11.33-7.6-18.81s2.53-13.75,7.6-18.81c5.06-5.06,11.33-7.6,18.81-7.6s13.38,2.53,18.45,7.6,7.6,11.34,7.6,18.81-2.53,13.75-7.6,18.81c-5.06,5.06-11.21,7.6-18.45,7.6s-13.75-2.53-18.81-7.6Z" fill="#231f20"/></svg>